<svg width="40" height="40" viewBox="0 0 40 40" fill="none" xmlns="http://www.w3.org/2000/svg">
<g clip-path="url(#clip0)">
<path d="M32.6559 5.83614C34.1046 5.83614 35.2789 7.01039 35.2789 8.45908C35.2789 9.90777 34.1046 11.082 32.6559 11.082H7.32551C5.87718 11.082 4.70256 9.90777 4.70256 8.45908C4.70256 7.01039 5.87718 5.83614 7.32551 5.83614H32.6559Z" fill="#00ACEA"/>
<path d="M32.5995 11.1197V34.9883C32.5995 37.3386 30.9218 39.0164 28.8525 39.0164H11.1289C9.05959 39.0164 7.38182 37.3386 7.38182 34.9883V11.082H32.5995V11.1197Z" fill="#00EFD1"/>
<path d="M25.5178 14.4921C25.0004 14.4921 24.5811 14.9114 24.5811 15.4288V33.1338C24.5811 33.6508 25.0004 34.0706 25.5178 34.0706C26.0349 34.0706 26.4546 33.6508 26.4546 33.1338V15.4288C26.4546 14.9114 26.0349 14.4921 25.5178 14.4921Z" fill="#083863"/>
<path d="M14.464 14.4921C13.9466 14.4921 13.5272 14.9114 13.5272 15.4288V33.1338C13.5272 33.6508 13.9466 34.0706 14.464 34.0706C14.981 34.0706 15.4007 33.6508 15.4007 33.1338V15.4288C15.4007 14.9114 14.981 14.4921 14.464 14.4921Z" fill="#083863"/>
<path d="M6.40776 11.9083V34.9882C6.40776 36.3524 6.90762 37.6331 7.78181 38.5527C8.65124 39.4745 9.86172 39.9977 11.1289 39.9999H28.8524C30.1196 39.9977 31.3301 39.4745 32.1995 38.5527C33.0737 37.6331 33.574 36.3524 33.574 34.9882V11.9094C34.1832 11.7393 34.7398 11.418 35.1924 10.9756C36.2053 9.94842 36.5039 8.41373 35.9503 7.08141C35.3966 5.74908 34.0987 4.87818 32.6559 4.87123H27.8597V3.70027C27.8652 2.71557 27.4758 1.77002 26.7784 1.0744C26.0813 0.379144 25.1347 -0.00800354 24.15 4.67893e-05H15.8314C14.8467 -0.00800354 13.9001 0.379144 13.203 1.0744C12.5055 1.77002 12.1162 2.71557 12.122 3.70027V4.87123H7.3255C5.35683 4.89172 3.76616 6.48349 3.74713 8.45216C3.75665 10.0714 4.8449 11.4853 6.40776 11.9083ZM28.8524 38.1264H11.1289C9.5269 38.1264 8.28129 36.7505 8.28129 34.9882V11.9906H31.7004V34.9882C31.7004 36.7505 30.4545 38.1264 28.8524 38.1264ZM13.9956 3.70027C13.9893 3.21249 14.1811 2.74301 14.5269 2.39868C14.873 2.05434 15.3436 1.86516 15.8314 1.87358H24.15C24.6377 1.86516 25.1083 2.05434 25.4545 2.39868C25.8003 2.74265 25.992 3.21249 25.9862 3.70027V4.87123H13.9956V3.70027ZM6.13259 7.25339C6.44692 6.93211 6.87615 6.74915 7.3255 6.74476H32.6559C33.5893 6.75244 34.342 7.51173 34.342 8.4452C34.3417 8.8909 34.1635 9.31793 33.8469 9.6319C33.53 9.94586 33.1015 10.1204 32.6559 10.1171H7.3255C6.39605 10.1193 5.64115 9.36733 5.63932 8.43825C5.63859 7.99292 5.81607 7.56625 6.13259 7.25339Z" fill="#083863"/>
<path d="M19.9909 14.4921C19.4735 14.4921 19.0541 14.9114 19.0541 15.4288V33.1338C19.0541 33.6508 19.4735 34.0706 19.9909 34.0706C20.508 34.0706 20.9277 33.6508 20.9277 33.1338V15.4288C20.9277 14.9114 20.508 14.4921 19.9909 14.4921Z" fill="#083863"/>
</g>
<defs>
<clipPath id="clip0">
<rect width="40" height="40" fill="white"/>
</clipPath>
</defs>
</svg>
